<svg width="77" height="18" viewBox="0 0 77 18" fill="none" xmlns="http://www.w3.org/2000/svg">
<g clip-path="url(#clip0_20_97)">
<path d="M40.284 4.65439H40.4486V14.2872C40.4471 14.8735 40.2062 15.4353 39.7782 15.8499C39.3502 16.2645 38.7701 16.4983 38.1647 16.5H37.8896V6.96953C37.891 6.35533 38.1435 5.76671 38.5923 5.33271C39.0411 4.89871 39.6498 4.65481 40.284 4.65439Z" fill="#00B4FF"/>
<path d="M27.4092 0.5H27.5746V9.61435L32.0043 5.31758C32.2267 5.10192 32.4909 4.93123 32.782 4.81543C33.0731 4.69963 33.3854 4.64106 33.7001 4.64307C34.0148 4.64508 34.3254 4.70764 34.6149 4.82715C34.9044 4.94666 35.1667 5.12068 35.3861 5.33916L35.5039 5.45684L30.4651 10.344C30.3877 10.419 30.305 10.4884 30.2174 10.552C30.333 10.6301 30.4408 10.7183 30.5401 10.8152L35.5023 15.628L35.3111 15.82C35.1015 16.0288 34.8511 16.1951 34.5745 16.3093C34.298 16.4235 34.0007 16.4833 33.7001 16.4853C33.3994 16.4872 33.1012 16.4312 32.8231 16.3206C32.545 16.21 32.2926 16.0469 32.0802 15.8408L27.5738 11.4696V14.256C27.5754 14.8465 27.3363 15.4137 26.9082 15.8343C26.4802 16.2548 25.8981 16.4946 25.2883 16.5016H25.0157V2.85117C25.0124 2.23229 25.2623 1.63736 25.7111 1.19668C26.1598 0.755994 26.7702 0.505495 27.4092 0.5Z" fill="#00B4FF"/>
<path d="M0.999838 14.08V13.9151L1.02888 12.064C1.01817 11.8283 1.03159 11.5922 1.06922 11.3592V11.2328H1.09826C1.22401 10.7494 1.50996 10.3194 1.91305 10.0093C2.31614 9.69915 2.81413 9.5261 3.32885 9.51679H8.6597C8.77742 9.47598 8.88096 9.40336 8.95738 9.30751C9.0338 9.21167 9.0803 9.09659 9.0913 8.97597V7.51913C9.07535 7.43257 9.03279 7.35267 8.96948 7.28964C8.90616 7.22662 8.82525 7.18334 8.73634 7.16552H3.38936C3.07439 7.16302 2.76356 7.10029 2.47373 6.98085C2.18389 6.86142 1.92114 6.68768 1.70088 6.46962C1.48063 6.25157 1.30713 5.99349 1.19022 5.71025C1.07332 5.427 1.01483 5.12414 1.0192 4.81913V4.65439H9.46642C9.78561 4.67961 10.0962 4.76621 10.3804 4.90917C10.6646 5.05213 10.917 5.24852 11.1218 5.48691C11.3267 5.7253 11.4801 6.00084 11.5736 6.29745C11.6671 6.59407 11.6987 6.9058 11.6664 7.21435V16.4199H11.3929C11.0807 16.4191 10.7719 16.3559 10.4861 16.2341C10.2004 16.1122 9.94405 15.9345 9.73264 15.712C9.50958 15.9609 9.23289 16.1599 8.92269 16.2954C8.61249 16.4309 8.27553 16.4996 7.93526 16.4968L3.37484 16.4544C2.84564 16.4441 2.33404 16.2666 1.9187 15.9488C1.50335 15.6311 1.20691 15.1905 1.07406 14.6943H1.06357V14.6536C1.0162 14.4659 0.99291 14.2732 0.994191 14.08H0.999838ZM9.09533 11.1928C8.87796 11.4467 8.60519 11.6508 8.29667 11.7905C7.98816 11.9302 7.65143 12.002 7.31085 12.0008L4.12993 11.9928C4.0717 11.9888 4.01299 11.9968 3.9581 12.016C3.90321 12.0352 3.85343 12.0653 3.81128 12.1044C3.76912 12.1435 3.73588 12.1907 3.71366 12.243C3.69144 12.2952 3.68068 12.3515 3.6822 12.408L3.67333 13.6607C3.67333 14.0607 3.97687 14.0143 4.1743 14.0143H8.69035C8.79648 14.0121 8.8983 13.9704 8.97351 13.8978C9.04873 13.8253 9.09179 13.7276 9.09452 13.6248L9.09533 11.1928Z" fill="#00B4FF"/>
<path d="M39.1424 3.59998C39.9809 3.59998 40.6607 2.94166 40.6607 2.12958C40.6607 1.3175 39.9809 0.65918 39.1424 0.65918C38.3038 0.65918 37.624 1.3175 37.624 2.12958C37.624 2.94166 38.3038 3.59998 39.1424 3.59998Z" fill="#00B4FF"/>
<path d="M14.5814 13.3439L19.575 7.15594H15.7318C15.1005 7.14604 14.4991 6.89471 14.0586 6.45673C13.6181 6.01875 13.3746 5.42971 13.381 4.81835V4.65839H21.8564C23.8977 4.65839 24.0867 5.89359 22.9302 7.32479L17.5461 13.992L21.4168 13.9767C22.0301 13.989 22.6147 14.2319 23.0464 14.654C23.4781 15.0761 23.7229 15.6443 23.7297 16.2384V16.5031H15.3655C14.2957 16.5031 13.8136 16.212 13.5988 15.8504C13.1676 15.12 13.8263 14.2775 14.5814 13.3439Z" fill="#00B4FF"/>
<path d="M54.2329 8.48398H48.4172C47.976 8.48398 47.5522 8.65369 47.2402 8.95585C46.9282 9.25801 46.7529 9.66789 46.7529 10.0952V14.8895C46.7531 15.3167 46.929 15.7263 47.241 16.0283C47.553 16.3303 47.9761 16.5 48.4172 16.5H54.2329C54.233 16.3178 54.1959 16.1372 54.124 15.9688C54.052 15.8004 53.9464 15.6474 53.8134 15.5185C53.6804 15.3896 53.5226 15.2874 53.3487 15.2177C53.1749 15.1479 52.9883 15.112 52.8001 15.112H49.0505C48.8432 15.112 48.6444 15.0323 48.4979 14.8903C48.3513 14.7484 48.2688 14.5559 48.2688 14.3552V10.6992C48.2688 10.5999 48.2892 10.5014 48.3285 10.4097C48.3677 10.3179 48.4253 10.2346 48.4979 10.1643C48.5705 10.0941 48.6564 10.0384 48.7512 10.0005C48.846 9.96254 48.9479 9.94305 49.0505 9.94316H52.8001C52.9883 9.94316 53.1749 9.90726 53.3487 9.83749C53.5226 9.76773 53.6804 9.66551 53.8134 9.53661C53.9464 9.40772 54.052 9.25472 54.124 9.08632C54.1959 8.91793 54.233 8.73741 54.2329 8.55517V8.48398Z" fill="#00B4FF"/>
<path d="M61.8456 9.99677C61.9853 9.99677 62.1194 10.0504 62.2183 10.1459C62.3173 10.2414 62.3736 10.371 62.374 10.5063V14.476C62.3736 14.6113 62.3173 14.7409 62.2183 14.8364C62.1194 14.9319 61.9853 14.9855 61.8456 14.9855H57.5046C57.3649 14.9855 57.2309 14.9319 57.1319 14.8364C57.033 14.7409 56.9775 14.6113 56.977 14.476V10.5063C56.9775 10.371 57.033 10.2414 57.1319 10.1459C57.2309 10.0504 57.3649 9.99677 57.5046 9.99677H61.8456ZM61.8456 8.48398H57.5046C56.9505 8.48398 56.4193 8.69713 56.0275 9.07656C55.6357 9.45598 55.416 9.97063 55.416 10.5072V14.4768C55.416 15.0133 55.6357 15.528 56.0275 15.9074C56.4193 16.2868 56.9505 16.5 57.5046 16.5H61.8456C62.3998 16.5 62.9316 16.2868 63.3235 15.9074C63.7155 15.528 63.9356 15.0134 63.9358 14.4768V10.5072C63.9356 9.97056 63.7155 9.45586 63.3235 9.07646C62.9316 8.69706 62.3998 8.48398 61.8456 8.48398Z" fill="#00B4FF"/>
<path d="M65.877 10.4687V16.4992H66.119C66.4943 16.4992 66.8547 16.3547 67.1201 16.0977C67.3855 15.8407 67.534 15.4923 67.534 15.1288V10.5903C67.5339 10.5053 67.5512 10.4211 67.5848 10.3426C67.6183 10.264 67.6679 10.1926 67.73 10.1325C67.7921 10.0724 67.8659 10.0247 67.947 9.99218C68.0281 9.95969 68.1149 9.94305 68.2027 9.94316H70.0832C70.1711 9.94305 70.2585 9.95971 70.3398 9.99218C70.421 10.0246 70.4946 10.0723 70.5568 10.1324C70.619 10.1925 70.6683 10.2639 70.702 10.3425C70.7357 10.4211 70.7535 10.5052 70.7536 10.5903V15.1288C70.7535 15.3088 70.7898 15.487 70.8609 15.6533C70.932 15.8196 71.036 15.9708 71.1675 16.098C71.2989 16.2253 71.4556 16.3263 71.6273 16.3951C71.799 16.4639 71.9827 16.4993 72.1686 16.4992H72.5042V10.556C72.5043 10.4709 72.5213 10.3867 72.555 10.3081C72.5888 10.2295 72.638 10.1581 72.7002 10.098C72.7624 10.0379 72.8368 9.99027 72.9181 9.95781C72.9993 9.92534 73.0859 9.90868 73.1738 9.90878H74.8179C74.9057 9.90868 74.9925 9.92532 75.0736 9.95781C75.1548 9.99029 75.2286 10.038 75.2906 10.0981C75.3527 10.1583 75.4023 10.2296 75.4358 10.3082C75.4694 10.3868 75.486 10.4709 75.4859 10.556V15.1288C75.4859 15.4923 75.6351 15.8407 75.9005 16.0977C76.1659 16.3547 76.5264 16.4992 76.9017 16.4992H77.0009V10.4687C77.001 10.2081 76.9481 9.95007 76.8452 9.70927C76.7423 9.46847 76.5917 9.24964 76.4015 9.06533C76.2112 8.88101 75.9854 8.73481 75.7368 8.63505C75.4881 8.5353 75.2217 8.48398 74.9526 8.48398H72.5147C72.3253 8.48374 72.1424 8.55029 72 8.67119L71.6999 8.92402L71.4022 8.67119C71.2597 8.55054 71.0768 8.48403 70.8875 8.48398H67.9285C67.6592 8.48377 67.3924 8.53491 67.1435 8.63456C66.8947 8.73422 66.6685 8.88041 66.478 9.06474C66.2875 9.24907 66.1366 9.46797 66.0335 9.70888C65.9304 9.94979 65.877 10.208 65.877 10.4687Z" fill="#00B4FF"/>
<path d="M43.6957 16.488C44.3103 16.488 44.8085 16.0056 44.8085 15.4104C44.8085 14.8153 44.3103 14.3328 43.6957 14.3328C43.0812 14.3328 42.583 14.8153 42.583 15.4104C42.583 16.0056 43.0812 16.488 43.6957 16.488Z" fill="#00B4FF"/>
</g>
<defs>
<clipPath id="clip0_20_97">
<rect width="77.0008" height="17" fill="white" transform="translate(0 0.5)"/>
</clipPath>
</defs>
</svg>
